<svg width="53" height="54" viewBox="0 0 53 54" fill="none" xmlns="http://www.w3.org/2000/svg">
<path d="M36.8056 41.6005C37.6186 41.6005 38.2778 40.9414 38.2778 40.1283V40.1283C38.2778 39.3152 37.6186 38.6561 36.8056 38.6561H33.4444C31.2353 38.6561 29.4444 36.8652 29.4444 34.6561V33.8227C29.4444 31.6136 31.2353 29.8227 33.4444 29.8227H35.3333C36.9595 29.8227 38.2778 31.141 38.2778 32.7672V32.7672C38.2778 34.3934 39.5961 35.7116 41.2222 35.7116H44.1667V40.1283C44.1667 40.9414 43.5075 41.6005 42.6944 41.6005V41.6005C41.8814 41.6005 41.2222 42.2597 41.2222 43.0727V47.4894H38.2778C36.6516 47.4894 35.3333 48.8077 35.3333 50.4339V50.4339C35.3333 52.06 34.0151 53.3783 32.3889 53.3783V53.3783C30.7627 53.3783 29.4444 52.06 29.4444 50.4339V47.4894C29.4444 45.8632 30.7627 44.545 32.3889 44.545H33.8611C34.6742 44.545 35.3333 43.8858 35.3333 43.0727V43.0727C35.3333 42.2597 35.9925 41.6005 36.8056 41.6005V41.6005ZM53 49.3783C53 51.5874 51.2091 53.3783 49 53.3783H45.2222C43.0131 53.3783 41.2222 51.5874 41.2222 49.3783V47.4894H44.1667C45.7928 47.4894 47.1111 46.1711 47.1111 44.545V44.545C47.1111 42.9188 48.4294 41.6005 50.0556 41.6005V41.6005C51.6817 41.6005 53 42.9188 53 44.545V49.3783ZM0 8.3783C0 3.96002 3.58172 0.378296 8 0.378296H15.5556C19.9738 0.378296 23.5556 3.96002 23.5556 8.3783V15.9338C23.5556 20.3521 19.9738 23.9339 15.5556 23.9339H8C3.58173 23.9339 0 20.3521 0 15.9339V8.3783ZM9.88889 6.26718C7.67975 6.26718 5.88889 8.05805 5.88889 10.2672V14.045C5.88889 16.2541 7.67975 18.045 9.88889 18.045H13.6667C15.8758 18.045 17.6667 16.2541 17.6667 14.045V10.2672C17.6667 8.05805 15.8758 6.26718 13.6667 6.26718H9.88889ZM29.4444 8.3783C29.4444 3.96002 33.0262 0.378296 37.4444 0.378296H45C49.4183 0.378296 53 3.96002 53 8.3783V15.9338C53 20.3521 49.4183 23.9339 45 23.9339H37.4444C33.0262 23.9339 29.4444 20.3521 29.4444 15.9339V8.3783ZM39.3333 6.26718C37.1242 6.26718 35.3333 8.05805 35.3333 10.2672V14.045C35.3333 16.2541 37.1242 18.045 39.3333 18.045H43.1111C45.3202 18.045 47.1111 16.2541 47.1111 14.045V10.2672C47.1111 8.05805 45.3202 6.26718 43.1111 6.26718H39.3333ZM0 37.8227C0 33.4045 3.58172 29.8227 8 29.8227H15.5556C19.9738 29.8227 23.5556 33.4045 23.5556 37.8227V45.3783C23.5556 49.7966 19.9738 53.3783 15.5556 53.3783H8C3.58173 53.3783 0 49.7966 0 45.3783V37.8227ZM9.88889 35.7116C7.67975 35.7116 5.88889 37.5025 5.88889 39.7116V43.4894C5.88889 45.6985 7.67975 47.4894 9.88889 47.4894H13.6667C15.8758 47.4894 17.6667 45.6985 17.6667 43.4894V39.7116C17.6667 37.5025 15.8758 35.7116 13.6667 35.7116H9.88889ZM44.1667 33.8227C44.1667 31.6136 45.9575 29.8227 48.1667 29.8227H50.0556C51.6817 29.8227 53 31.141 53 32.7672V32.7672C53 34.3934 51.6817 35.7116 50.0556 35.7116H44.1667V33.8227ZM8.83333 11.2116C8.83333 10.1071 9.72876 9.21163 10.8333 9.21163H12.7222C13.8268 9.21163 14.7222 10.1071 14.7222 11.2116V13.1005C14.7222 14.2051 13.8268 15.1005 12.7222 15.1005H10.8333C9.72876 15.1005 8.83333 14.2051 8.83333 13.1005V11.2116ZM8.83333 40.6561C8.83333 39.5515 9.72876 38.6561 10.8333 38.6561H12.7222C13.8268 38.6561 14.7222 39.5515 14.7222 40.6561V42.545C14.7222 43.6495 13.8268 44.545 12.7222 44.545H10.8333C9.72876 44.545 8.83333 43.6495 8.83333 42.545V40.6561ZM38.2778 11.2116C38.2778 10.1071 39.1732 9.21163 40.2778 9.21163H42.1667C43.2712 9.21163 44.1667 10.1071 44.1667 11.2116V13.1005C44.1667 14.2051 43.2712 15.1005 42.1667 15.1005H40.2778C39.1732 15.1005 38.2778 14.2051 38.2778 13.1005V11.2116Z" fill="#2A2929" fill-opacity="0.22"/>
</svg>
