<svg width="53" height="54" viewBox="0 0 53 54" fill="none" xmlns="http://www.w3.org/2000/svg">
<path d="M35.3333 3.32274C35.3333 1.69657 36.6516 0.378296 38.2778 0.378296H45C49.4183 0.378296 53 3.96002 53 8.37829V12.1561C53 13.7822 51.6817 15.1005 50.0556 15.1005V15.1005C48.4294 15.1005 47.1111 13.7822 47.1111 12.1561V10.2672C47.1111 8.05805 45.3202 6.26718 43.1111 6.26718H38.2778C36.6516 6.26718 35.3333 4.94891 35.3333 3.32274V3.32274ZM14.7222 0.378296C16.3484 0.378296 17.6667 1.69657 17.6667 3.32274V3.32274C17.6667 4.94891 16.3484 6.26718 14.7222 6.26718H9.88889C7.67975 6.26718 5.88889 8.05805 5.88889 10.2672V12.1561C5.88889 13.7822 4.57062 15.1005 2.94444 15.1005V15.1005C1.31827 15.1005 0 13.7822 0 12.1561V8.37829C0 3.96001 3.58172 0.378296 8 0.378296H14.7222ZM38.2778 53.3783C36.6516 53.3783 35.3333 52.06 35.3333 50.4339V50.4339C35.3333 48.8077 36.6516 47.4894 38.2778 47.4894H43.1111C45.3202 47.4894 47.1111 45.6985 47.1111 43.4894V41.6005C47.1111 39.9743 48.4294 38.6561 50.0556 38.6561V38.6561C51.6817 38.6561 53 39.9743 53 41.6005V45.3783C53 49.7966 49.4183 53.3783 45 53.3783H38.2778ZM17.6667 50.4339C17.6667 52.06 16.3484 53.3783 14.7222 53.3783H8C3.58172 53.3783 0 49.7966 0 45.3783V41.6005C0 39.9743 1.31827 38.6561 2.94444 38.6561V38.6561C4.57062 38.6561 5.88889 39.9743 5.88889 41.6005V43.4894C5.88889 45.6985 7.67975 47.4894 9.88889 47.4894H14.7222C16.3484 47.4894 17.6667 48.8077 17.6667 50.4339V50.4339ZM0 26.8783C0 25.2521 1.31827 23.9339 2.94444 23.9339H50.0556C51.6817 23.9339 53 25.2521 53 26.8783V26.8783C53 28.5045 51.6817 29.8227 50.0556 29.8227H2.94444C1.31827 29.8227 0 28.5045 0 26.8783V26.8783Z" fill="#2A2929" fill-opacity="0.22"/>
</svg>
